<svg version="1.1" xmlns="http://www.w3.org/2000/svg" x="0" y="0" width="215.7" height="169.9" viewBox="0 0 215.7 169.9" xml:space="preserve"><path fill="#FFF" d="M114.3 140.5c0 2.3-1.8 4.1-4.1 4.1h-2c-2.3 0-4.1-1.8-4.1-4.1v-17.8c0-2.3 1.8-4.1 4.1-4.1h2c2.3 0 4.1 1.8 4.1 4.1v17.8z"/><path fill="#17384C" d="M159.2 60.1c0-28.6-23.2-51.8-51.8-51.8S55.5 31.5 55.5 60.1c0 15.7 6.9 29.7 17.9 39.2 0 0 .3.3.9.8.1.1.3.2.4.3 2.7 2.3 8.3 8.1 8.2 17.7l.2 9.6c0 6.2 5.6 11.3 12.4 11.3h23.6c6.9 0 12.4-5 12.4-11.3v-9.6c0-8.5 4.2-14 7.1-16.7.9-.7 1.7-1.4 2.6-2.1 11-9.5 18-23.6 18-39.2z"/><path fill="#0086FF" d="M107.3 17.7c-23.2 0-42 18.8-42 42h42v-42z"/><path fill="#16D34F" d="M65.4 59.7c0 23.2 18.8 42 42 42v-42h-42z"/><path fill="#2E5868" d="M107.3 17.7v84c23.2 0 42-18.8 42-42s-18.8-42-42-42z"/><path fill="#FFF" d="M98.8 54.8h5.3v15.1h-5.3zM104.9 50.7h5.3v19.2h-5.3zM111 45.9h5.3v24H111zM117.1 41.8h5.3v28.1h-5.3zM92.7 59.7H98v10.2h-5.3z"/><path fill="#17384C" d="M120.7 107.2l-2.7-.9c.1-.2 5.6-15.6 8.9-26 .9-2.8.8-5-.2-6.5-1.5-2.1-4.8-2.4-5.1-2.4-1 0-12.8.6-24.4 0-4.4-.2-7.5.6-8.9 2.4-1.5 1.9-.7 4.6-.7 4.6v.1l7.3 28-2.7.7-7.3-28c-.2-.5-1.2-4.2 1.1-7.1 2-2.6 5.8-3.8 11.3-3.5 11.9.6 24 0 24.2 0h.2c.2 0 5 .1 7.4 3.6 1.6 2.3 1.8 5.3.6 9-3.4 10.4-8.9 25.8-9 26z"/><path fill="#FFF" d="M71 114.8c-1.5 0-2.9-.7-3.8-1.8-.8-1-1.2-2.3-1.1-3.6.1-1.3.8-2.5 1.8-3.4.9-.7 2-1.1 3.2-1.1 1.5 0 2.9.7 3.8 1.8.8 1 1.2 2.3 1.1 3.6-.1 1.3-.8 2.5-1.8 3.4-.9.7-2 1.1-3.2 1.1zm0-8.3c-.8 0-1.5.3-2.1.7-.7.6-1.1 1.3-1.2 2.2-.1.9.2 1.7.7 2.4.6.8 1.5 1.2 2.5 1.2.8 0 1.5-.3 2.1-.7.7-.6 1.1-1.3 1.2-2.2.1-.9-.2-1.7-.7-2.4-.6-.7-1.5-1.2-2.5-1.2z"/><path fill="#FFF" d="M63.4 117.1c-.3 0-.6-.1-.8-.4-.4-.4-.3-1.1.1-1.4l4.3-3.5c.4-.4 1.1-.3 1.4.1.4.4.3 1.1-.1 1.4l-4.3 3.5c-.2.2-.4.3-.6.3zM143.9 114.8c-1.1 0-2.3-.4-3.2-1.1-1-.8-1.7-2-1.8-3.4-.1-1.3.3-2.6 1.1-3.6.9-1.2 2.3-1.8 3.8-1.8 1.1 0 2.3.4 3.2 1.1 1 .8 1.7 2 1.8 3.4.1 1.3-.3 2.6-1.1 3.6-.9 1.1-2.3 1.8-3.8 1.8zm0-8.3c-1 0-1.9.4-2.5 1.2-.6.7-.8 1.5-.7 2.4.1.9.5 1.7 1.2 2.2.6.5 1.3.7 2.1.7 1 0 1.9-.4 2.5-1.2.6-.7.8-1.5.7-2.4-.1-.9-.5-1.7-1.2-2.2-.6-.4-1.3-.7-2.1-.7z"/><path fill="#FFF" d="M151.6 117.1c-.2 0-.4-.1-.6-.2l-4.3-3.5c-.4-.4-.5-1-.1-1.4.4-.4 1-.5 1.4-.1l4.3 3.5c.4.4.5 1 .1 1.4-.3.2-.5.3-.8.3zM60.8 96.1c-.3 0-.5-.1-.7-.3-.7-.9-1.3-1.9-2-2.8-.3-.4-.2-.9.2-1.2.4-.3.9-.2 1.2.2.6.9 1.3 1.8 1.9 2.7.3.4.2.9-.2 1.2 0 .2-.2.2-.4.2zM157.8 90.8c-.1 0-.3 0-.4-.1-.4-.2-.5-.8-.3-1.2 1.2-1.9 2.2-4 3.1-6 .2-.4.7-.6 1.1-.4.4.2.6.7.4 1.1-.9 2.1-2 4.2-3.2 6.2-.1.3-.4.4-.7.4zM55.4 87.4c-.3 0-.6-.2-.8-.5-1-2.1-2-4.2-2.8-6.4-.2-.4.1-.9.5-1.1.4-.2.9.1 1.1.5.8 2.1 1.7 4.2 2.7 6.2.2.4 0 .9-.4 1.1 0 .2-.2.2-.3.2zm108-9.2h-.2c-.4-.1-.7-.6-.6-1.1.7-2.2 1.2-4.4 1.6-6.6.1-.5.5-.8 1-.7.5.1.8.5.7 1-.4 2.3-1 4.6-1.6 6.8-.3.4-.6.6-.9.6zM50.7 74.5c-.4 0-.7-.3-.8-.7-.5-2.3-.9-4.6-1.2-6.9 0-.5.3-.9.8-.9.5-.1.9.3.9.7.2 2.3.6 4.5 1.1 6.7.1.5-.2.9-.6 1-.1.1-.1.1-.2.1zm115.1-9.9s-.1 0 0 0c-.5 0-.9-.4-.8-.9.1-1.1.1-2.3.1-3.4s0-2.3-.1-3.4c0-.5.3-.9.8-.9s.9.3.9.8c.1 1.1.1 2.3.1 3.5 0 1.2 0 2.4-.1 3.5-.1.5-.5.8-.9.8zM49.2 60.8c-.5 0-.8-.4-.8-.9 0-2.3.2-4.7.5-7 .1-.5.5-.8.9-.7.5.1.8.5.7.9-.3 2.2-.4 4.5-.4 6.8-.1.5-.4.9-.9.9zM165 50.9c-.4 0-.8-.3-.8-.7-.4-2.2-.9-4.5-1.6-6.6-.1-.4.1-.9.6-1.1.4-.1.9.1 1.1.6.7 2.2 1.2 4.5 1.6 6.8.1.5-.2.9-.7 1h-.2zM50.9 47.1h-.2c-.5-.1-.7-.6-.6-1 .6-2.3 1.3-4.5 2.1-6.7.2-.4.7-.7 1.1-.5.4.2.7.7.5 1.1-.8 2.1-1.5 4.3-2 6.5-.2.3-.5.6-.9.6zM161 37.7c-.3 0-.6-.2-.8-.5-.9-2.1-2-4.1-3.1-6-.2-.4-.1-.9.3-1.2.4-.2.9-.1 1.2.3 1.2 2 2.3 4.1 3.2 6.2.2.4 0 .9-.4 1.1-.2.1-.3.1-.4.1zM55.8 34.2c-.1 0-.3 0-.4-.1-.4-.2-.6-.7-.4-1.1 1.1-2.1 2.3-4.1 3.6-6 .3-.4.8-.5 1.2-.2.4.3.5.8.2 1.2-1.3 1.9-2.5 3.8-3.5 5.8-.1.2-.4.4-.7.4zm98.2-8.4c-.3 0-.5-.1-.7-.3-1.4-1.8-2.9-3.5-4.4-5.2-.3-.3-.3-.9 0-1.2.3-.3.9-.3 1.2 0 1.6 1.7 3.2 3.5 4.6 5.3.3.4.2.9-.2 1.2-.2.2-.3.2-.5.2zm-90.4-3c-.2 0-.4-.1-.6-.2-.4-.3-.4-.8-.1-1.2 1.5-1.8 3.2-3.4 4.9-5 .3-.3.9-.3 1.2.1.3.3.3.9-.1 1.2-1.7 1.5-3.3 3.2-4.8 4.9-.1.1-.3.2-.5.2zm80.8-6.9c-.2 0-.4-.1-.5-.2-1.8-1.4-3.6-2.8-5.5-4-.4-.3-.5-.8-.3-1.2.3-.4.8-.5 1.2-.3 2 1.2 3.9 2.6 5.7 4.1.4.3.4.8.1 1.2-.2.3-.4.4-.7.4zm-70.6-2.3c-.3 0-.5-.1-.7-.4-.3-.4-.2-.9.2-1.2 1.9-1.3 3.9-2.6 5.9-3.7.4-.2.9-.1 1.1.3.2.4.1.9-.3 1.1-2 1.1-3.9 2.3-5.8 3.6-.1.2-.3.3-.4.3zm59-5.1c-.1 0-.2 0-.4-.1-2-1-4.2-1.8-6.3-2.6-.4-.2-.7-.6-.5-1.1.2-.4.6-.7 1.1-.5 2.2.8 4.4 1.6 6.5 2.7.4.2.6.7.4 1.1-.2.4-.5.5-.8.5zM85.8 7c-.3 0-.7-.2-.8-.5-.2-.4 0-.9.5-1.1 2.2-.9 4.4-1.6 6.6-2.2.5-.1.9.1 1 .6.1.5-.1.9-.6 1-2.2.6-4.4 1.3-6.5 2.1.1.1 0 .1-.2.1zm33.9-2.9h-.2c-2.2-.5-4.5-.8-6.7-1-.5 0-.8-.5-.8-.9 0-.5.5-.8.9-.8 2.3.2 4.6.6 6.9 1 .5.1.7.5.7 1 0 .4-.4.7-.8.7zm-20.6-.7c-.4 0-.8-.3-.8-.7-.1-.5.3-.9.7-1 2.3-.3 4.6-.5 7-.6.5 0 .9.4.9.8 0 .5-.4.9-.8.9-2.3.1-4.5.2-6.8.6h-.2zM151.8 99.2c-.2 0-.4-.1-.6-.2-.4-.3-.4-.8-.1-1.2.7-.8 1.4-1.7 2.1-2.6.3-.4.8-.4 1.2-.2.4.3.4.8.2 1.2-.7.9-1.4 1.8-2.2 2.7-.2.2-.4.3-.6.3z"/><ellipse fill="#1A81BA" cx="109.9" cy="157.1" rx="34" ry="5.8"/><path fill="none" stroke="#37A1F7" stroke-width="1.173" stroke-miterlimit="10" d="M81.3 123.8l5.1 8.7 5.1-9.1 6.5 9.1 6.1-9.1 7.2 9.1 5.8-9.1 5.8 9.1 5.4-9.1 5.2 9.1"/><circle fill="#16D34F" cx="91.5" cy="123.4" r="1.3"/><circle fill="#16D34F" cx="104.1" cy="123.4" r="1.3"/><circle fill="#16D34F" cx="117.1" cy="123.4" r="1.3"/><circle fill="#16D34F" cx="128.3" cy="123.4" r="1.3"/><circle fill="#16D34F" cx="123" cy="133" r="1.3"/><circle fill="#16D34F" cx="111.5" cy="133" r="1.3"/><circle fill="#16D34F" cx="98" cy="133" r="1.3"/><circle fill="#16D34F" cx="86.4" cy="133" r="1.3"/></svg>